<svg xmlns="http://www.w3.org/2000/svg" version="1.1" viewBox="213.87 18.84 936.57 1261.67">
<path d="M0 0 C6.7116939 2.14891954 12.24279001 2.11780163 19.22265625 1.234375 C22.87135405 1.09017497 25.0554721 1.89822665 28.484375 3.10546875 C32.59063665 3.85268345 36.73783482 4.34351546 40.87695312 4.87304688 C46.01505774 5.58134614 50.60000643 6.75037953 55.48168945 8.48803711 C58.11366217 9.29947914 60.43422827 9.3357468 63.171875 9.16796875 C67.50208515 8.91777883 70.40162979 9.63756845 74.484375 11.10546875 C76.26037647 11.64293148 78.03936257 12.17057543 79.8203125 12.69140625 C80.80257813 12.98273437 81.78484375 13.2740625 82.796875 13.57421875 C84.82923878 14.17563252 86.86309202 14.77203693 88.8984375 15.36328125 C102.77771949 19.50526593 116.24298534 26.80572359 126.484375 37.10546875 C128.6526945 39.14726043 130.84940799 41.15762781 133.046875 43.16796875 C141.38582637 50.80168309 141.38582637 50.80168309 143.484375 53.10546875 C143.484375 53.76546875 143.484375 54.42546875 143.484375 55.10546875 C144.35449219 55.48832031 144.35449219 55.48832031 145.2421875 55.87890625 C155.3810762 61.42526697 161.72781323 73.4376029 167.48046875 82.9453125 C169.19563051 85.65011926 170.97409276 88.11894653 172.984375 90.60546875 C180.58749991 100.18608803 185.95522989 110.78241711 191.296875 121.73046875 C191.86035645 122.87435059 192.42383789 124.01823242 193.00439453 125.19677734 C197.48422124 134.53210603 200.11326072 143.55658451 201.8203125 153.7265625 C202.35389014 156.4415311 202.96576061 159.08673252 203.6484375 161.765625 C206.72730249 173.86744945 208.74615852 185.63408424 209.484375 198.10546875 C209.5565625 199.2553125 209.62875 200.40515625 209.703125 201.58984375 C210.07325849 214.23607126 207.97576513 227.01568444 206.13061523 239.4987793 C204.72133714 249.33187788 209.70364183 256.69077296 214.3203125 265.06640625 C215.78182512 267.74085722 217.12958305 270.43610612 218.3984375 273.20703125 C222.25508727 281.56360365 226.38890815 287.88293066 232.96875 294.359375 C236.93420889 298.68812903 239.76209625 303.14666905 240.484375 309.10546875 C241.16242187 308.82832031 241.84046875 308.55117188 242.5390625 308.265625 C250.87774974 305.02023565 258.98826054 302.25494738 267.58984375 306.00390625 C270.92411297 307.94259474 273.71886998 310.43502797 276.484375 313.10546875 C274.88705091 319.49476511 271.26344415 324.34406318 266.640625 328.9375 C260.9645349 334.64966695 259.65839656 340.31053223 258.484375 348.10546875 C258.35047363 348.96172852 258.21657227 349.81798828 258.07861328 350.70019531 C255.04261083 366.94549242 255.04261083 366.94549242 256.484375 383.16796875 C258.72685675 392.29807303 258.10095748 402.36094595 255.96655273 411.4309082 C253.84142947 423.21861724 256.40215684 434.93026274 258.671875 446.48046875 C258.99410026 448.17080162 259.31537978 449.86131503 259.63574219 451.55200195 C261.58355185 461.76705477 263.65367257 471.95562165 265.84375 482.12158203 C267.33546187 489.11836146 268.52370893 496.13582707 269.49707031 503.22338867 C270.18097289 508.47268869 270.18097289 508.47268869 272.484375 513.10546875 C274.81098984 514.41895553 277.00364746 515.49480152 279.44921875 516.53125 C280.15010117 516.83988983 280.85098358 517.14852966 281.57310486 517.46652222 C283.85028815 518.46417228 286.13542848 519.44175695 288.421875 520.41796875 C289.98538977 521.09564655 291.54870342 521.77378856 293.11181641 522.45239258 C303.77114172 527.05518814 314.49107642 531.36162094 325.484375 535.10546875 C326.59941406 535.51023437 327.71445312 535.915 328.86328125 536.33203125 C339.67129134 540.16935795 350.46846986 541.28442627 361.859375 541.91796875 C387.74150527 543.62095525 414.78795048 546.9002763 437.484375 560.10546875 C438.391875 560.62109375 439.299375 561.13671875 440.234375 561.66796875 C442.484375 563.10546875 442.484375 563.10546875 443.859375 564.60546875 C445.56054536 566.35795841 445.56054536 566.35795841 448.671875 567.35546875 C460.21246553 572.08323168 467.64335466 584.4430678 473.90234375 594.6015625 C475.18200302 596.62689976 476.50863146 598.4759387 477.984375 600.35546875 C486.53519616 612.25348636 489.82071135 626.60347029 493.35766602 640.54858398 C495.22204453 647.73883507 497.33151735 654.75605075 499.83374023 661.75415039 C504.95822956 676.17470467 508.85514492 690.79219015 512.421875 705.66796875 C512.65480255 706.62671906 512.8877301 707.58546936 513.12771606 708.57327271 C517.38101839 726.17337177 521.10363638 744.0412444 520.921875 762.23046875 C520.91502686 763.35751221 520.90817871 764.48455566 520.90112305 765.64575195 C520.68859637 777.11662058 519.02644695 788.25722782 517.09179688 799.54638672 C516.02322649 805.80748764 515.03451102 812.08116652 514.046875 818.35546875 C513.9430954 819.01426025 513.8393158 819.67305176 513.73239136 820.35180664 C509.64075861 846.42152144 506.26466819 872.53595135 504.56005859 898.87768555 C503.78018382 910.41057334 502.10194245 921.08129288 496.671875 931.41796875 C496.31714111 932.10238037 495.96240723 932.78679199 495.59692383 933.49194336 C484.26962032 954.81407687 457.21779469 962.45242511 435.51074219 969.18994141 C429.72416092 970.94048027 423.91500053 972.61283908 418.08251953 974.20385742 C417.27153809 974.42662354 416.46055664 974.64938965 415.625 974.87890625 C414.91891602 975.06888184 414.21283203 975.25885742 413.48535156 975.45458984 C411.28399956 976.170647 409.43107125 976.83911491 407.484375 978.10546875 C401.4853762 993.42871676 408.33190751 1016.17246083 411.98828125 1031.40234375 C413.61194307 1038.35905878 414.66078242 1045.34146814 415.609375 1052.41796875 C415.77824219 1053.60841797 415.94710937 1054.79886719 416.12109375 1056.02539062 C418.42953511 1072.92063664 418.75108942 1089.76691285 418.796875 1106.79296875 C418.80115509 1107.90177399 418.80543518 1109.01057922 418.80984497 1110.15298462 C418.85036407 1130.56498295 417.63090141 1150.78070811 415.81958008 1171.10620117 C415.72591156 1172.18011108 415.63224304 1173.254021 415.53573608 1174.36047363 C415.35971115 1176.35216864 415.17545162 1178.34316254 414.98086548 1180.33312988 C414.20594223 1188.98320946 415.16233602 1196.68928309 417.41015625 1205.04296875 C417.59901901 1205.76677734 417.78788177 1206.49058594 417.98246765 1207.23632812 C418.58135525 1209.52764384 419.18860564 1211.81662763 419.796875 1214.10546875 C422.18766149 1223.17261719 424.56602492 1232.2425923 426.77734375 1241.35546875 C426.95002274 1242.04640625 427.12270172 1242.73734375 427.3006134 1243.44921875 C428.25129579 1247.43292561 428.54975889 1251.02447092 428.484375 1255.10546875 C363.72213248 1255.17406737 298.95988565 1255.23765969 234.19761658 1255.27484131 C233.23821726 1255.27539354 232.27881795 1255.27594577 231.29034593 1255.27651473 C210.43707028 1255.288488 189.58379424 1255.29956849 168.73051763 1255.30973007 C158.50320633 1255.31471916 148.27589513 1255.31990541 138.04858398 1255.32519531 C136.52202111 1255.32597987 136.52202111 1255.32597987 134.96461858 1255.32678027 C102.0126125 1255.34380779 69.06063397 1255.37383966 36.10864456 1255.41065763 C2.22959593 1255.44844244 -31.64943747 1255.47302313 -65.52850681 1255.48112871 C-70.32013233 1255.48228123 -75.1117578 1255.48358377 -79.90338326 1255.48497772 C-80.84638946 1255.48524741 -81.78939566 1255.48551711 -82.76097781 1255.48579497 C-97.904904 1255.49051105 -113.04878293 1255.50903404 -128.1926899 1255.53279689 C-143.43915556 1255.55642323 -158.68557466 1255.56532138 -173.93205797 1255.55947426 C-182.97619884 1255.55644552 -192.02016847 1255.56442046 -201.06427823 1255.58865892 C-207.12474725 1255.60378258 -213.18510559 1255.60403737 -219.24558259 1255.592796 C-222.686713 1255.58682131 -226.12726457 1255.58902753 -229.56840002 1255.60500148 C-246.62479689 1255.67951319 -262.76468127 1254.33703553 -279.515625 1251.10546875 C-281.18886722 1250.79356896 -282.86229927 1250.48268507 -284.5359568 1250.17302155 C-287.28815769 1249.66057822 -290.0391867 1249.14232599 -292.78955078 1248.62011719 C-307.39228781 1245.87999139 -321.052105 1244.53263774 -335.9609375 1245.08984375 C-346.71198126 1245.35449892 -353.4689116 1242.20756796 -361.515625 1235.10546875 C-378.83913131 1217.58316811 -386.72453407 1194.20377849 -386.59790039 1169.94140625 C-386.45937995 1163.48314761 -386.02589257 1157.04831957 -385.578125 1150.60546875 C-385.38496684 1147.76452136 -385.19508356 1144.92337265 -385.0078125 1142.08203125 C-384.9619249 1141.38796173 -384.91603729 1140.69389221 -384.86875916 1139.97879028 C-384.55982896 1135.16550368 -384.38827879 1130.36097281 -384.27197266 1125.54003906 C-383.50149651 1096.8958123 -375.73775732 1068.62795236 -368.765625 1040.98046875 C-368.25368303 1038.9427644 -367.74196304 1036.90500427 -367.23046875 1034.8671875 C-365.99473581 1029.94597021 -364.75603581 1025.02550895 -363.515625 1020.10546875 C-364.39992188 1019.82711182 -365.28421875 1019.54875488 -366.1953125 1019.26196289 C-371.22493831 1017.51009984 -375.807155 1015.01428419 -380.515625 1012.54296875 C-381.53930176 1012.00647705 -382.56297852 1011.46998535 -383.61767578 1010.91723633 C-391.5556876 1006.70889967 -399.14527003 1002.24688573 -406.515625 997.10546875 C-407.92328125 996.14833984 -407.92328125 996.14833984 -409.359375 995.171875 C-414.02719556 991.82228154 -414.02719556 991.82228154 -415.515625 990.10546875 C-416.02171241 985.86350343 -414.99044442 983.72553432 -412.59375 980.26953125 C-411.67335938 978.91988281 -411.67335938 978.91988281 -410.734375 977.54296875 C-410.0846875 976.61484375 -409.435 975.68671875 -408.765625 974.73046875 C-407.49792184 972.89075319 -406.23225029 971.04963583 -404.96875 969.20703125 C-404.36732178 968.33232178 -403.76589355 967.4576123 -403.14624023 966.55639648 C-401.75572644 964.46635786 -400.4754819 962.37083237 -399.25390625 960.1796875 C-397.79688119 957.60288139 -396.35964266 955.5310547 -394.453125 953.29296875 C-389.31528723 946.82431101 -385.26929409 939.66186671 -381.0234375 932.59423828 C-379.03779157 929.31676507 -377.00454955 926.07018228 -374.97143555 922.82202148 C-366.5436063 909.33879628 -358.54101678 895.61136586 -350.54345703 881.87078857 C-348.92131527 879.0847312 -347.29653487 876.3002145 -345.671875 873.515625 C-345.06988281 872.4836499 -344.46789062 871.4516748 -343.84765625 870.38842773 C-342.68119367 868.38912245 -341.51453167 866.3899335 -340.34765625 864.39086914 C-337.78212992 859.99501321 -335.22025279 855.59722842 -332.671875 851.19140625 C-325.81100873 839.37322283 -325.81100873 839.37322283 -321.828125 833.98046875 C-313.84700558 822.87173173 -309.80232804 809.67661384 -305.890625 796.73046875 C-305.43585697 795.25621359 -304.98012892 793.78225422 -304.5234375 792.30859375 C-302.72269994 786.47417987 -300.94950723 780.63279678 -299.26074219 774.76489258 C-296.7035058 765.88749237 -293.88058979 757.16853977 -290.72189331 748.48693848 C-289.50565712 745.13930655 -288.30958917 741.78448267 -287.11328125 738.4296875 C-286.88274551 737.78359528 -286.65220978 737.13750305 -286.41468811 736.47183228 C-282.2634031 724.80683546 -278.81681916 713.40839899 -277.09765625 701.1171875 C-275.48747725 690.28632532 -272.01031971 681.91847969 -265.515625 673.10546875 C-264.401875 671.58953125 -264.401875 671.58953125 -263.265625 670.04296875 C-259.00754501 665.10250414 -253.46909327 661.33352376 -248.2890625 657.42578125 C-243.81041023 654.02200553 -239.58586768 650.4208034 -235.453125 646.60546875 C-234.93274658 646.1254541 -234.41236816 645.64543945 -233.8762207 645.15087891 C-231.76508921 643.19869296 -229.65937516 641.24142523 -227.5703125 639.265625 C-222.39919487 634.52350143 -216.64872276 630.70338973 -210.87866211 626.73876953 C-205.53267022 622.9978085 -201.11932605 619.06579206 -196.7890625 614.1640625 C-191.11529101 609.02647216 -185.06742314 608.66090193 -177.765625 608.23046875 C-167.23827687 607.40711105 -157.59073052 605.17730142 -147.515625 602.10546875 C-146.71930664 601.87311523 -145.92298828 601.64076172 -145.10253906 601.40136719 C-135.43537817 598.56862798 -127.39220005 595.58006442 -119.515625 589.10546875 C-117.37391272 587.43309896 -115.22925527 585.76560728 -113.078125 584.10546875 C-112.52253906 583.67540527 -111.96695312 583.2453418 -111.39453125 582.80224609 C-103.98352154 577.10297136 -96.23800357 572.36084045 -87.890625 568.16796875 C-87.22063477 567.82886475 -86.55064453 567.48976074 -85.86035156 567.14038086 C-82.27880487 565.36102718 -78.69908732 563.76098549 -74.95703125 562.34765625 C-65.24907113 558.56278548 -65.24907113 558.56278548 -59.04711914 550.53735352 C-57.73744187 547.44254483 -56.65224622 544.26722041 -55.515625 541.10546875 C-54.76270694 539.98444286 -53.99816777 538.87114142 -53.22265625 537.765625 C-50.95107581 533.90054783 -51.63584954 531.16797928 -52.71972656 526.95263672 C-52.98237305 526.01307129 -53.24501953 525.07350586 -53.515625 524.10546875 C-54.04889504 521.88912836 -54.57723615 519.67159825 -55.1015625 517.453125 C-56.00766028 513.73113457 -56.92995084 510.01529765 -57.88549805 506.30566406 C-59.3236631 500.6162041 -60.65630046 495.17868949 -60.94921875 489.3046875 C-61.30729914 482.23228866 -61.30729914 482.23228866 -64.515625 476.10546875 C-70.44575057 472.43235702 -77.09584093 470.71742664 -83.796875 468.9921875 C-102.7138771 464.10235702 -114.34638086 452.03173204 -124.515625 436.10546875 C-125.13800049 435.13480469 -125.13800049 435.13480469 -125.77294922 434.14453125 C-141.04543729 409.99979041 -147.59759763 385.61900378 -152.9765625 357.85009766 C-153.65736524 354.38380035 -154.39005147 350.93232515 -155.140625 347.48046875 C-155.37007813 346.40796875 -155.59953125 345.33546875 -155.8359375 344.23046875 C-156.29434261 342.12285906 -156.76868093 340.01866011 -157.2578125 337.91796875 C-159.14240576 329.36929829 -160.24061883 320.80170632 -161.203125 312.10546875 C-161.33895996 310.88013428 -161.47479492 309.6547998 -161.61474609 308.39233398 C-162.2734184 301.99718555 -162.5547719 295.952385 -162.140625 289.54296875 C-161.96949672 282.74450898 -164.42381184 279.87196116 -168.9921875 275.05859375 C-171.96951767 271.57428785 -173.89804182 268.0200952 -175.890625 263.91796875 C-176.21160156 263.26449463 -176.53257812 262.61102051 -176.86328125 261.93774414 C-178.45528358 258.60553883 -179.83291635 255.27298409 -181.05859375 251.7890625 C-182.8832473 247.17606437 -184.57093427 246.00360888 -188.515625 243.10546875 C-189.84895833 241.77213542 -191.18229167 240.43880208 -192.515625 239.10546875 C-193.505625 238.44546875 -194.495625 237.78546875 -195.515625 237.10546875 C-195.73670287 234.31693985 -195.79670035 231.75893694 -195.703125 228.98046875 C-195.68958984 228.22636719 -195.67605469 227.47226563 -195.66210938 226.6953125 C-195.62672485 224.83172748 -195.57291667 222.96850897 -195.515625 221.10546875 C-196.835625 220.77546875 -198.155625 220.44546875 -199.515625 220.10546875 C-200.72731637 215.13753414 -200.25757919 211.89584277 -198.515625 207.10546875 C-197.97679687 206.37070313 -197.43796875 205.6359375 -196.8828125 204.87890625 C-195.03985707 201.14033952 -195.69974908 198.24044588 -196.390625 194.29296875 C-198.52080816 179.25429488 -198.26124779 156.22390294 -189.515625 143.10546875 C-188.855625 143.10546875 -188.195625 143.10546875 -187.515625 143.10546875 C-184.18637892 137.90993072 -182.76344446 133.68558386 -181.953125 127.60546875 C-179.20184957 107.7607853 -165.61764166 92.53424777 -151.234375 79.60546875 C-149.38791192 77.90757167 -147.58245853 76.16419953 -145.81640625 74.3828125 C-143.4902709 72.08037293 -141.33487172 70.74456568 -138.515625 69.10546875 C-132.82922229 65.48363134 -129.31709763 61.88033025 -126.03515625 55.9609375 C-124.0438508 53.52939486 -122.55234206 53.55856622 -119.515625 53.10546875 C-118.14366926 51.81191048 -116.80379844 50.48248173 -115.515625 49.10546875 C-114.855625 49.10546875 -114.195625 49.10546875 -113.515625 49.10546875 C-114.175625 47.45546875 -114.835625 45.80546875 -115.515625 44.10546875 C-105.89607095 35.73289393 -95.09884243 30.74042194 -83.00390625 27.0078125 C-79.96569522 25.90604367 -77.92424072 24.23071791 -75.515625 22.10546875 C-74.5875 21.81671875 -73.659375 21.52796875 -72.703125 21.23046875 C-69.64727472 20.15193336 -68.01935734 19.07984054 -65.515625 17.10546875 C-62.28065061 14.55576565 -59.49012868 13.27975393 -55.515625 12.10546875 C-51.59166237 9.86320439 -50.46502953 7.08903452 -48.515625 3.10546875 C-47.030625 2.11546875 -47.030625 2.11546875 -45.515625 1.10546875 C-44.7525 1.33234375 -43.989375 1.55921875 -43.203125 1.79296875 C-42.31625 1.89609375 -41.429375 1.99921875 -40.515625 2.10546875 C-38.4988592 0.45912932 -36.49822926 -1.20720848 -34.515625 -2.89453125 C-32.328125 -2.51953125 -32.328125 -2.51953125 -30.515625 -1.89453125 C-29.835 -2.57515625 -29.835 -2.57515625 -29.140625 -3.26953125 C-22.37087491 -10.03928134 -7.57160621 -2.69238792 0 0 Z M-156.515625 249.10546875 C-157.0415625 250.12640625 -157.0415625 250.12640625 -157.578125 251.16796875 C-159.515625 253.10546875 -159.515625 253.10546875 -161.53515625 253.18359375 C-163.8888329 252.91817084 -166.19004822 252.55347829 -168.515625 252.10546875 C-169.52625 251.91984375 -170.536875 251.73421875 -171.578125 251.54296875 C-172.5371875 251.32640625 -172.5371875 251.32640625 -173.515625 251.10546875 C-172.8321649 260.67391017 -168.89111369 267.96492142 -162.515625 275.10546875 C-160.87341597 276.46881209 -159.21100087 277.80883611 -157.515625 279.10546875 C-155.63761749 269.04471423 -153.97108751 259.3911769 -154.515625 249.10546875 C-155.175625 249.10546875 -155.835625 249.10546875 -156.515625 249.10546875 Z " fill="#000000" transform="translate(629.515625,24.89453125)"/>
</svg>