<?xml version="1.0" encoding="UTF-8"?>
<svg version="1.1" xmlns="http://www.w3.org/2000/svg" width="1200" height="675">
<path d="M0 0 C0.94359375 0.16628906 1.8871875 0.33257812 2.859375 0.50390625 C7.24660515 1.27935616 11.21397452 2.39596315 15.375 4 C25.32000628 7.73456425 35.8169061 8.36558857 46.32202148 9.30322266 C47.57414429 9.41802979 47.57414429 9.41802979 48.8515625 9.53515625 C49.60260254 9.600979 50.35364258 9.66680176 51.12744141 9.73461914 C53 10 53 10 55 11 C56.89196204 11.3158055 58.78868791 11.60340078 60.6875 11.875 C66.95610108 12.89477242 71.67451743 14.10716535 76.6875 18.1875 C79.03500981 20.41125444 79.03500981 20.41125444 83 20 C85.21875 21.35546875 85.21875 21.35546875 87.5 23.1875 C88.62921875 24.07501953 88.62921875 24.07501953 89.78125 24.98046875 C92 27 92 27 93.91015625 29.48828125 C96.31025451 32.37288533 98.76254861 34.01415399 101.9375 36 C106.14514975 38.63842513 109.71181064 41.24978404 113 45 C113.3125 48.0625 113.3125 48.0625 113 51 C113 52.32 113 53.64 113 55 C111.02 55 109.04 55 107 55 C107.33 55.99 107.66 56.98 108 58 C108.66 58.309375 109.32 58.61875 110 58.9375 C112 60 112 60 112.625 62 C112.74875 62.66 112.8725 63.32 113 64 C113.66 64.66 114.32 65.32 115 66 C114.96712417 68.72869407 114.43602229 71.2966618 114 74 C114.556875 74.226875 115.11375 74.45375 115.6875 74.6875 C118.66159588 76.37550036 120.72008865 78.46676517 123 81 C123 81.66 123 82.32 123 83 C123.7425 83.165 124.485 83.33 125.25 83.5 C129.27000698 85.69273108 130.49189435 88.77576529 132 93 C132.33333333 95.33333333 132.66666667 97.66666667 133 100 C133.92093162 102.07209615 134.94837958 104.03352559 136.0625 106.0078125 C139.36844016 113.03293534 139.11747759 124.02915143 137.43359375 131.51953125 C136.93623542 132.88140772 136.41127519 134.23351781 135.859375 135.57421875 C134.24356468 140.13521061 133.59597119 144.98863573 132.74609375 149.7421875 C132 153 132 153 130 156 C130.35992576 159.14461455 131.68603168 161.28677679 133.4375 163.875 C137.57640704 170.38241454 139.04683218 176.32323066 138 184 C136.95721274 187.34855193 135.71140019 190.52863845 134.34375 193.7578125 C133.1035284 196.75020765 132.17719386 199.71326867 131.25 202.8125 C128.70219793 209.98409101 123.14661059 213.90225961 117 218 C116.00232113 221.02499482 116.00232113 221.02499482 115.375 224.5625 C115.13523437 225.73941406 114.89546875 226.91632813 114.6484375 228.12890625 C113.21591816 236.68087411 112.90580156 244.76474246 113.25 253.4375 C113.27707031 254.50548828 113.30414062 255.57347656 113.33203125 256.67382812 C113.6862796 266.0271273 115.64693846 273.70845421 120 282 C120 282.66 120 283.32 120 284 C120.6290625 283.89558594 121.258125 283.79117187 121.90625 283.68359375 C126.02995878 283.29233825 128.8551113 283.14872303 132.26953125 285.6875 C135.63268618 289.39147177 138.00736108 292.90172788 139.9375 297.5 C144.14602037 305.64598349 155.60371803 309.50642447 163.828125 312.41796875 C170.57022196 314.54988754 176.92948025 316.09111284 184.015625 316.2109375 C218.15972727 316.98311768 218.15972727 316.98311768 225.28125 321.421875 C229.43341278 323.83203845 233.93090008 324.70922844 238.5625 325.875 C253.78922598 329.87352357 266.752159 335.75084347 279.625 344.875 C280.3365625 345.36613281 281.048125 345.85726563 281.78125 346.36328125 C300.9469844 359.87758115 310.74347171 380.87919456 315.42822266 403.28442383 C316.97207888 410.40615592 318.91565598 417.95894562 323.40258789 423.83764648 C334.30286437 438.5929191 342.74457961 458.23361988 347 476 C349.27891639 484.17764729 351.7613124 492.00530294 355.8125 499.5 C357.23499063 502.49471712 358.13676993 505.5053029 359.0625 508.6875 C360.29699309 512.92428028 361.6022456 516.4457595 363.9453125 520.16015625 C365.30182929 522.52652442 366.2856671 524.9731857 367.3125 527.5 C371.41376931 537.55311137 376.11963844 547.30627606 381 557 C387.42688567 569.80327438 393.16426243 582.71132724 398.50854492 596.00366211 C401.11243143 602.45309706 403.78047345 608.86397495 406.5625 615.23828125 C407.0085408 616.26052544 407.0085408 616.26052544 407.46359253 617.30342102 C408.91673451 620.62734027 410.37823929 623.9473784 411.84814453 627.26391602 C412.37520996 628.46330811 412.90227539 629.6627002 413.4453125 630.8984375 C413.91469238 631.95724121 414.38407227 633.01604492 414.86767578 634.10693359 C416 637 416 637 417 642 C214.71 642 12.42 642 -196 642 C-197.19336317 608.58583129 -197.19336317 608.58583129 -189 599 C-187.37163262 597.2958946 -185.71230248 595.61974559 -184 594 C-183.1646875 593.1028125 -183.1646875 593.1028125 -182.3125 592.1875 C-181 591 -181 591 -179 591 C-178.73574219 590.40445313 -178.47148437 589.80890625 -178.19921875 589.1953125 C-176.95498791 586.91760002 -175.72083092 585.61302221 -173.8125 583.875 C-167.20398143 577.44435046 -162.57558383 569.41780714 -157.6875 561.66015625 C-156.13355681 559.21053748 -154.54852717 556.78734537 -152.9375 554.375 C-152.45023437 553.64410156 -151.96296875 552.91320312 -151.4609375 552.16015625 C-150.50143073 550.74142031 -149.52780629 549.33211104 -148.5390625 547.93359375 C-143.93566868 541.32078199 -140.50282992 534.23465841 -137 527 C-136.20142578 525.44539062 -136.20142578 525.44539062 -135.38671875 523.859375 C-133.85895766 520.70917468 -132.84494843 517.58938135 -131.84375 514.24609375 C-131 512 -131 512 -129.62890625 509.7265625 C-128.33042477 507.5530851 -127.30814536 505.52492487 -126.30859375 503.21484375 C-122.54068312 494.55431838 -118.65720298 488.03761119 -112.33984375 480.98046875 C-106.08140194 473.00853036 -103.17091482 463.36518245 -102.8125 453.3125 C-102.31963219 447.9475127 -100.19631536 444.12785538 -97.48828125 439.5390625 C-95.67291996 436.44198943 -94.36552291 433.31626993 -93 430 C-92.46375 428.989375 -91.9275 427.97875 -91.375 426.9375 C-89.86379486 424.0772705 -89.86379486 424.0772705 -89.5625 421 C-88.65223075 416.14523067 -85.75929006 412.15814233 -82 409 C-80.06605884 408.2275512 -78.10255833 407.5277393 -76.125 406.875 C-63.80283279 402.20439036 -55.33074516 396.54602456 -49.828125 384.453125 C-43.82532705 370.20458299 -39.35297578 355.45248617 -35.43334961 340.51220703 C-31.01253878 323.93178377 -31.01253878 323.93178377 -24.375 318.4375 C-23.59898437 317.77621094 -22.82296875 317.11492187 -22.0234375 316.43359375 C-20 315 -20 315 -18 315 C-16.68753016 311.87026422 -15.50232835 308.70033025 -14.375 305.5 C-14.11460937 304.7678125 -13.85421875 304.035625 -13.5859375 303.28125 C-12.90994386 300.64938144 -12.62749274 298.70284336 -13 296 C-14.66890753 294.04909788 -14.66890753 294.04909788 -17 292.5 C-17.82371094 291.90058594 -18.64742187 291.30117188 -19.49609375 290.68359375 C-21.65156734 289.23428156 -23.82690326 287.88252432 -26.0625 286.5625 C-49.3612241 272.17886954 -59.73395161 238.31415975 -66.203125 213.609375 C-67.20291058 209.08093443 -67.72933099 204.55792177 -68.2421875 199.953125 C-69.12871924 196.49839305 -70.24637597 195.20906405 -73 193 C-74.64991582 192.29289322 -76.31562256 191.62056011 -78 191 C-78.66 190.34 -79.32 189.68 -80 189 C-79.67322266 188.13761719 -79.67322266 188.13761719 -79.33984375 187.2578125 C-78.70685238 184.75168358 -78.70685238 184.75168358 -80.87890625 182.1171875 C-81.76281333 181.02775188 -82.65805658 179.94744757 -83.5625 178.875 C-90.85706034 169.83342311 -95.79822869 161.20619959 -99 150 C-99.350625 149.236875 -99.70125 148.47375 -100.0625 147.6875 C-101.50031733 143.56575698 -101.68019032 139.33426278 -102 135 C-101.34 136.32 -100.68 137.64 -100 139 C-100 137.02 -100 135.04 -100 133 C-100.99 133 -101.98 133 -103 133 C-105.65564631 127.68870739 -103.61038865 121.40723451 -102.046875 116.0234375 C-100.12935959 110.4855385 -97.54813724 105.26957348 -95 100 C-90.38645464 90.11383137 -86.80681353 80.65126047 -84.0625 70.07421875 C-83.02367948 67.0685138 -82.24912125 66.07660343 -80 64 C-80 63.01 -80 62.02 -80 61 C-80.66 61 -81.32 61 -82 61 C-82.495 62.485 -82.495 62.485 -83 64 C-84 61 -84 61 -83 58 C-83.04125 57.071875 -83.0825 56.14375 -83.125 55.1875 C-82.97624136 51.39415479 -81.79574094 49.31521404 -80 46 C-79.690625 44.989375 -79.38125 43.97875 -79.0625 42.9375 C-77.87282957 39.64841117 -76.38928822 37.53861873 -74 35 C-73.34 35 -72.68 35 -72 35 C-71.7525 34.21625 -71.505 33.4325 -71.25 32.625 C-69.84610901 29.67682892 -68.99324263 29.0975223 -66 28 C-66.33 26.68 -66.66 25.36 -67 24 C-66.01 23.34 -65.02 22.68 -64 22 C-63.6596875 20.6696875 -63.6596875 20.6696875 -63.3125 19.3125 C-60.63176222 12.54682847 -54.40816869 8.91475625 -47.98828125 6.03515625 C-45.77772704 4.88427832 -44.08849203 3.48174479 -42.1875 1.875 C-30.55172912 -7.12454154 -13.16050801 -2.72146308 0 0 Z M-78 55 C-78.99 55.99 -79.98 56.98 -81 58 C-80.01 58 -79.02 58 -78 58 C-78 57.01 -78 56.02 -78 55 Z " fill="#000000" transform="translate(610,33)"/>
<path d="M0 0 C4.01478958 4.94688634 6.15914558 10.76522799 8.6875 16.5625 C9.19861328 17.71169922 9.70972656 18.86089844 10.23632812 20.04492188 C10.71908203 21.14513672 11.20183594 22.24535156 11.69921875 23.37890625 C12.14096436 24.3851001 12.58270996 25.39129395 13.0378418 26.42797852 C14 29 14 29 14 32 C13.34 32 12.68 32 12 32 C11.60167969 31.06542969 11.20335937 30.13085938 10.79296875 29.16796875 C9.46124831 26.05748944 8.10322402 22.9593154 6.73828125 19.86328125 C5.92955696 18.01307788 5.12096575 16.16281635 4.3125 14.3125 C3.89677734 13.37599609 3.48105469 12.43949219 3.05273438 11.47460938 C2.66021484 10.57162109 2.26769531 9.66863281 1.86328125 8.73828125 C1.50532471 7.92399658 1.14736816 7.10971191 0.77856445 6.27075195 C0 4 0 4 0 0 Z " fill="#F2F8FE" transform="translate(1013,643)"/>
<path d="M0 0 C3.62671411 1.81335706 4.60578239 6.29198176 6.1875 9.875 C6.56841797 10.70386719 6.94933594 11.53273438 7.34179688 12.38671875 C7.87450195 13.58361328 7.87450195 13.58361328 8.41796875 14.8046875 C8.74563232 15.53671387 9.0732959 16.26874023 9.41088867 17.02294922 C10 19 10 19 9 22 C6.6311311 18.39029502 5.12062437 14.83099743 3.74609375 10.76953125 C3.04317396 8.79194732 3.04317396 8.79194732 1 7 C0.59952556 4.67724823 0.2602896 2.34260643 0 0 Z " fill="#F5F9FE" transform="translate(992,594)"/>
<path d="M0 0 C2.3223428 2.8762349 3.86565842 5.63780422 5.25 9.0625 C5.60578125 9.91972656 5.9615625 10.77695312 6.328125 11.66015625 C7 14 7 14 6 17 C2.39138172 11.4667853 0.99518578 6.50799121 0 0 Z " fill="#F0F5FE" transform="translate(1006,626)"/>
<path d="M0 0 C2.29158942 2.89818662 4.07862366 5.83140544 5.75 9.125 C6.19859375 9.99382813 6.6471875 10.86265625 7.109375 11.7578125 C7.40328125 12.49773438 7.6971875 13.23765625 8 14 C7.67 14.66 7.34 15.32 7 16 C2.84730044 11.41771083 0 6.26551193 0 0 Z " fill="#F2F5FE" transform="translate(981,572)"/>
<path d="M0 0 C0.99 0.495 0.99 0.495 2 1 C1.01 1.495 1.01 1.495 0 2 C0 1.34 0 0.68 0 0 Z " fill="#675443" transform="translate(524,97)"/>
<path d="" fill="#785555" transform="translate(0,0)"/>
<path d="" fill="#76584E" transform="translate(0,0)"/>
</svg>
